<mxfile host="app.diagrams.net" modified="2022-09-08T01:09:59.175Z" agent="5.0 (Windows NT 10.0; Win64; x64) AppleWebKit/537.36 (KHTML, like Gecko) Chrome/105.0.0.0 Safari/537.36 Edg/105.0.1343.27" etag="ZPsmRTDEpb5Vhk4Wz-Ah" version="20.2.8" type="github">
  <diagram name="Page-1" id="74e2e168-ea6b-b213-b513-2b3c1d86103e">
    <mxGraphModel dx="1385" dy="662" grid="1" gridSize="10" guides="1" tooltips="1" connect="1" arrows="1" fold="1" page="1" pageScale="1" pageWidth="1100" pageHeight="850" background="none" math="0" shadow="0">
      <root>
        <mxCell id="0" />
        <mxCell id="1" parent="0" />
        <mxCell id="77e6c97f196da883-1" value="试用机构用户注册流程" style="swimlane;html=1;childLayout=stackLayout;startSize=20;rounded=0;shadow=0;labelBackgroundColor=none;strokeWidth=1;fontFamily=Verdana;fontSize=8;align=center;" parent="1" vertex="1">
          <mxGeometry x="70" y="40" width="800" height="1140" as="geometry" />
        </mxCell>
        <mxCell id="77e6c97f196da883-2" value="web" style="swimlane;html=1;startSize=20;" parent="77e6c97f196da883-1" vertex="1">
          <mxGeometry y="20" width="160" height="1120" as="geometry" />
        </mxCell>
        <mxCell id="77e6c97f196da883-8" value="登录" style="rounded=1;whiteSpace=wrap;html=1;shadow=0;labelBackgroundColor=none;strokeWidth=1;fontFamily=Verdana;fontSize=8;align=center;" parent="77e6c97f196da883-2" vertex="1">
          <mxGeometry x="20" y="65" width="100" height="60" as="geometry" />
        </mxCell>
        <mxCell id="yeu5ydfBFWtMkk7DWW7v-15" style="edgeStyle=orthogonalEdgeStyle;rounded=0;orthogonalLoop=1;jettySize=auto;html=1;entryX=0.5;entryY=0;entryDx=0;entryDy=0;elbow=vertical;" edge="1" parent="77e6c97f196da883-2" source="77e6c97f196da883-9">
          <mxGeometry relative="1" as="geometry">
            <mxPoint x="70" y="400" as="targetPoint" />
          </mxGeometry>
        </mxCell>
        <mxCell id="77e6c97f196da883-9" value="登录完成" style="rounded=1;whiteSpace=wrap;html=1;shadow=0;labelBackgroundColor=none;strokeWidth=1;fontFamily=Verdana;fontSize=8;align=center;" parent="77e6c97f196da883-2" vertex="1">
          <mxGeometry x="20" y="270" width="100" height="60" as="geometry" />
        </mxCell>
        <mxCell id="yeu5ydfBFWtMkk7DWW7v-23" style="edgeStyle=orthogonalEdgeStyle;rounded=0;orthogonalLoop=1;jettySize=auto;html=1;entryX=0.5;entryY=0;entryDx=0;entryDy=0;elbow=vertical;" edge="1" parent="77e6c97f196da883-2" source="yeu5ydfBFWtMkk7DWW7v-19" target="yeu5ydfBFWtMkk7DWW7v-22">
          <mxGeometry relative="1" as="geometry" />
        </mxCell>
        <mxCell id="yeu5ydfBFWtMkk7DWW7v-19" value="体验产品入口" style="rounded=1;whiteSpace=wrap;html=1;shadow=0;labelBackgroundColor=none;strokeWidth=1;fontFamily=Verdana;fontSize=8;align=center;" vertex="1" parent="77e6c97f196da883-2">
          <mxGeometry x="20" y="400" width="100" height="60" as="geometry" />
        </mxCell>
        <mxCell id="yeu5ydfBFWtMkk7DWW7v-33" style="edgeStyle=orthogonalEdgeStyle;rounded=0;orthogonalLoop=1;jettySize=auto;html=1;elbow=vertical;" edge="1" parent="77e6c97f196da883-2" source="yeu5ydfBFWtMkk7DWW7v-22" target="yeu5ydfBFWtMkk7DWW7v-32">
          <mxGeometry relative="1" as="geometry" />
        </mxCell>
        <mxCell id="yeu5ydfBFWtMkk7DWW7v-22" value="是否认证" style="rhombus;whiteSpace=wrap;html=1;rounded=0;shadow=0;labelBackgroundColor=none;strokeWidth=1;fontFamily=Verdana;fontSize=8;align=center;" vertex="1" parent="77e6c97f196da883-2">
          <mxGeometry x="30" y="530" width="80" height="60" as="geometry" />
        </mxCell>
        <mxCell id="yeu5ydfBFWtMkk7DWW7v-45" style="edgeStyle=orthogonalEdgeStyle;rounded=0;orthogonalLoop=1;jettySize=auto;html=1;elbow=vertical;" edge="1" parent="77e6c97f196da883-2" source="yeu5ydfBFWtMkk7DWW7v-32" target="yeu5ydfBFWtMkk7DWW7v-44">
          <mxGeometry relative="1" as="geometry" />
        </mxCell>
        <mxCell id="yeu5ydfBFWtMkk7DWW7v-32" value="是否首次体验" style="rhombus;whiteSpace=wrap;html=1;rounded=0;shadow=0;labelBackgroundColor=none;strokeWidth=1;fontFamily=Verdana;fontSize=8;align=center;" vertex="1" parent="77e6c97f196da883-2">
          <mxGeometry x="30" y="650" width="80" height="60" as="geometry" />
        </mxCell>
        <mxCell id="yeu5ydfBFWtMkk7DWW7v-44" value="浏览产品页面" style="rounded=1;whiteSpace=wrap;html=1;shadow=0;labelBackgroundColor=none;strokeWidth=1;fontFamily=Verdana;fontSize=8;align=center;" vertex="1" parent="77e6c97f196da883-2">
          <mxGeometry x="20" y="790" width="100" height="60" as="geometry" />
        </mxCell>
        <mxCell id="77e6c97f196da883-26" value="手机号码" style="edgeStyle=orthogonalEdgeStyle;rounded=1;html=1;labelBackgroundColor=none;startArrow=none;startFill=0;startSize=5;endArrow=classicThin;endFill=1;endSize=5;jettySize=auto;orthogonalLoop=1;strokeWidth=1;fontFamily=Verdana;fontSize=8" parent="77e6c97f196da883-1" source="77e6c97f196da883-8" target="77e6c97f196da883-11" edge="1">
          <mxGeometry relative="1" as="geometry" />
        </mxCell>
        <mxCell id="77e6c97f196da883-3" value="framework-api" style="swimlane;html=1;startSize=20;" parent="77e6c97f196da883-1" vertex="1">
          <mxGeometry x="160" y="20" width="160" height="1120" as="geometry" />
        </mxCell>
        <mxCell id="yeu5ydfBFWtMkk7DWW7v-5" style="edgeStyle=orthogonalEdgeStyle;curved=1;rounded=0;orthogonalLoop=1;jettySize=auto;html=1;" edge="1" parent="77e6c97f196da883-3" source="77e6c97f196da883-11" target="yeu5ydfBFWtMkk7DWW7v-4">
          <mxGeometry relative="1" as="geometry" />
        </mxCell>
        <mxCell id="77e6c97f196da883-11" value="登录认证" style="rounded=1;whiteSpace=wrap;html=1;shadow=0;labelBackgroundColor=none;strokeWidth=1;fontFamily=Verdana;fontSize=8;align=center;" parent="77e6c97f196da883-3" vertex="1">
          <mxGeometry x="30" y="65" width="100" height="60" as="geometry" />
        </mxCell>
        <mxCell id="yeu5ydfBFWtMkk7DWW7v-12" style="edgeStyle=orthogonalEdgeStyle;rounded=0;orthogonalLoop=1;jettySize=auto;html=1;entryX=0.5;entryY=0;entryDx=0;entryDy=0;elbow=vertical;" edge="1" parent="77e6c97f196da883-3" source="yeu5ydfBFWtMkk7DWW7v-4" target="yeu5ydfBFWtMkk7DWW7v-11">
          <mxGeometry relative="1" as="geometry" />
        </mxCell>
        <mxCell id="yeu5ydfBFWtMkk7DWW7v-4" value="是否存在" style="rhombus;whiteSpace=wrap;html=1;rounded=0;shadow=0;labelBackgroundColor=none;strokeWidth=1;fontFamily=Verdana;fontSize=8;align=center;" vertex="1" parent="77e6c97f196da883-3">
          <mxGeometry x="40" y="160" width="80" height="60" as="geometry" />
        </mxCell>
        <mxCell id="yeu5ydfBFWtMkk7DWW7v-11" value="登录日志" style="rounded=1;whiteSpace=wrap;html=1;shadow=0;labelBackgroundColor=none;strokeWidth=1;fontFamily=Verdana;fontSize=8;align=center;" vertex="1" parent="77e6c97f196da883-3">
          <mxGeometry x="30" y="270" width="100" height="60" as="geometry" />
        </mxCell>
        <mxCell id="yeu5ydfBFWtMkk7DWW7v-25" value="企业认证" style="rounded=1;whiteSpace=wrap;html=1;shadow=0;labelBackgroundColor=none;strokeWidth=1;fontFamily=Verdana;fontSize=8;align=center;" vertex="1" parent="77e6c97f196da883-3">
          <mxGeometry x="30" y="530" width="100" height="60" as="geometry" />
        </mxCell>
        <mxCell id="yeu5ydfBFWtMkk7DWW7v-34" value="获取试用期权限" style="rounded=1;whiteSpace=wrap;html=1;shadow=0;labelBackgroundColor=none;strokeWidth=1;fontFamily=Verdana;fontSize=8;align=center;" vertex="1" parent="77e6c97f196da883-3">
          <mxGeometry x="30" y="650" width="100" height="60" as="geometry" />
        </mxCell>
        <mxCell id="77e6c97f196da883-4" value="admin (controller)" style="swimlane;html=1;startSize=20;" parent="77e6c97f196da883-1" vertex="1">
          <mxGeometry x="320" y="20" width="160" height="1120" as="geometry" />
        </mxCell>
        <mxCell id="77e6c97f196da883-12" value="注册未激活账号" style="rounded=1;whiteSpace=wrap;html=1;shadow=0;labelBackgroundColor=none;strokeWidth=1;fontFamily=Verdana;fontSize=8;align=center;" parent="77e6c97f196da883-4" vertex="1">
          <mxGeometry x="30" y="155" width="100" height="60" as="geometry" />
        </mxCell>
        <mxCell id="yeu5ydfBFWtMkk7DWW7v-27" value="换绑租户" style="rounded=1;whiteSpace=wrap;html=1;shadow=0;labelBackgroundColor=none;strokeWidth=1;fontFamily=Verdana;fontSize=8;align=center;" vertex="1" parent="77e6c97f196da883-4">
          <mxGeometry x="30" y="530" width="100" height="60" as="geometry" />
        </mxCell>
        <mxCell id="yeu5ydfBFWtMkk7DWW7v-38" value="认证授权" style="rounded=1;whiteSpace=wrap;html=1;shadow=0;labelBackgroundColor=none;strokeWidth=1;fontFamily=Verdana;fontSize=8;align=center;" vertex="1" parent="77e6c97f196da883-4">
          <mxGeometry x="30" y="650" width="100" height="60" as="geometry" />
        </mxCell>
        <mxCell id="77e6c97f196da883-5" value="admin (tenant)" style="swimlane;html=1;startSize=20;" parent="77e6c97f196da883-1" vertex="1">
          <mxGeometry x="480" y="20" width="160" height="1120" as="geometry" />
        </mxCell>
        <mxCell id="yeu5ydfBFWtMkk7DWW7v-7" value="绑定未激活租户" style="rounded=1;whiteSpace=wrap;html=1;shadow=0;labelBackgroundColor=none;strokeWidth=1;fontFamily=Verdana;fontSize=8;align=center;" vertex="1" parent="77e6c97f196da883-5">
          <mxGeometry x="30" y="155" width="100" height="60" as="geometry" />
        </mxCell>
        <mxCell id="yeu5ydfBFWtMkk7DWW7v-29" value="绑定试用租户" style="rounded=1;whiteSpace=wrap;html=1;shadow=0;labelBackgroundColor=none;strokeWidth=1;fontFamily=Verdana;fontSize=8;align=center;" vertex="1" parent="77e6c97f196da883-5">
          <mxGeometry x="30" y="530" width="100" height="60" as="geometry" />
        </mxCell>
        <mxCell id="77e6c97f196da883-6" value="admin(user-permission)" style="swimlane;html=1;startSize=20;" parent="77e6c97f196da883-1" vertex="1">
          <mxGeometry x="640" y="20" width="160" height="1120" as="geometry" />
        </mxCell>
        <mxCell id="yeu5ydfBFWtMkk7DWW7v-40" value="添加权限资源" style="rounded=1;whiteSpace=wrap;html=1;shadow=0;labelBackgroundColor=none;strokeWidth=1;fontFamily=Verdana;fontSize=8;align=center;" vertex="1" parent="77e6c97f196da883-6">
          <mxGeometry x="30" y="650" width="100" height="60" as="geometry" />
        </mxCell>
        <mxCell id="yeu5ydfBFWtMkk7DWW7v-6" value="否" style="edgeStyle=orthogonalEdgeStyle;curved=1;rounded=0;orthogonalLoop=1;jettySize=auto;html=1;entryX=0.008;entryY=0.592;entryDx=0;entryDy=0;entryPerimeter=0;" edge="1" parent="77e6c97f196da883-1" source="yeu5ydfBFWtMkk7DWW7v-4" target="77e6c97f196da883-12">
          <mxGeometry relative="1" as="geometry" />
        </mxCell>
        <mxCell id="yeu5ydfBFWtMkk7DWW7v-8" style="edgeStyle=orthogonalEdgeStyle;curved=1;rounded=0;orthogonalLoop=1;jettySize=auto;html=1;entryX=0;entryY=0.5;entryDx=0;entryDy=0;" edge="1" parent="77e6c97f196da883-1" source="77e6c97f196da883-12" target="yeu5ydfBFWtMkk7DWW7v-7">
          <mxGeometry relative="1" as="geometry" />
        </mxCell>
        <mxCell id="yeu5ydfBFWtMkk7DWW7v-10" style="edgeStyle=orthogonalEdgeStyle;rounded=0;orthogonalLoop=1;jettySize=auto;html=1;entryX=1;entryY=0.5;entryDx=0;entryDy=0;elbow=vertical;" edge="1" parent="77e6c97f196da883-1" source="yeu5ydfBFWtMkk7DWW7v-7" target="77e6c97f196da883-11">
          <mxGeometry relative="1" as="geometry">
            <Array as="points">
              <mxPoint x="560" y="115" />
            </Array>
          </mxGeometry>
        </mxCell>
        <mxCell id="yeu5ydfBFWtMkk7DWW7v-13" style="edgeStyle=orthogonalEdgeStyle;rounded=0;orthogonalLoop=1;jettySize=auto;html=1;entryX=1;entryY=0.5;entryDx=0;entryDy=0;elbow=vertical;" edge="1" parent="77e6c97f196da883-1" source="yeu5ydfBFWtMkk7DWW7v-11" target="77e6c97f196da883-9">
          <mxGeometry relative="1" as="geometry" />
        </mxCell>
        <mxCell id="yeu5ydfBFWtMkk7DWW7v-26" value="否" style="edgeStyle=orthogonalEdgeStyle;rounded=0;orthogonalLoop=1;jettySize=auto;html=1;entryX=0;entryY=0.5;entryDx=0;entryDy=0;elbow=vertical;" edge="1" parent="77e6c97f196da883-1" source="yeu5ydfBFWtMkk7DWW7v-22" target="yeu5ydfBFWtMkk7DWW7v-25">
          <mxGeometry relative="1" as="geometry" />
        </mxCell>
        <mxCell id="yeu5ydfBFWtMkk7DWW7v-28" style="edgeStyle=orthogonalEdgeStyle;rounded=0;orthogonalLoop=1;jettySize=auto;html=1;entryX=0;entryY=0.5;entryDx=0;entryDy=0;elbow=vertical;" edge="1" parent="77e6c97f196da883-1" source="yeu5ydfBFWtMkk7DWW7v-25" target="yeu5ydfBFWtMkk7DWW7v-27">
          <mxGeometry relative="1" as="geometry" />
        </mxCell>
        <mxCell id="yeu5ydfBFWtMkk7DWW7v-30" style="edgeStyle=orthogonalEdgeStyle;rounded=0;orthogonalLoop=1;jettySize=auto;html=1;entryX=0;entryY=0.5;entryDx=0;entryDy=0;elbow=vertical;" edge="1" parent="77e6c97f196da883-1" source="yeu5ydfBFWtMkk7DWW7v-27" target="yeu5ydfBFWtMkk7DWW7v-29">
          <mxGeometry relative="1" as="geometry" />
        </mxCell>
        <mxCell id="yeu5ydfBFWtMkk7DWW7v-36" style="edgeStyle=orthogonalEdgeStyle;rounded=0;orthogonalLoop=1;jettySize=auto;html=1;entryX=0;entryY=0.5;entryDx=0;entryDy=0;elbow=vertical;" edge="1" parent="77e6c97f196da883-1" source="yeu5ydfBFWtMkk7DWW7v-32" target="yeu5ydfBFWtMkk7DWW7v-34">
          <mxGeometry relative="1" as="geometry" />
        </mxCell>
        <mxCell id="yeu5ydfBFWtMkk7DWW7v-37" value="是" style="edgeLabel;html=1;align=center;verticalAlign=middle;resizable=0;points=[];" vertex="1" connectable="0" parent="yeu5ydfBFWtMkk7DWW7v-36">
          <mxGeometry x="-0.2708" relative="1" as="geometry">
            <mxPoint x="8" as="offset" />
          </mxGeometry>
        </mxCell>
        <mxCell id="yeu5ydfBFWtMkk7DWW7v-39" style="edgeStyle=orthogonalEdgeStyle;rounded=0;orthogonalLoop=1;jettySize=auto;html=1;entryX=0;entryY=0.5;entryDx=0;entryDy=0;elbow=vertical;" edge="1" parent="77e6c97f196da883-1" source="yeu5ydfBFWtMkk7DWW7v-34" target="yeu5ydfBFWtMkk7DWW7v-38">
          <mxGeometry relative="1" as="geometry" />
        </mxCell>
        <mxCell id="yeu5ydfBFWtMkk7DWW7v-41" style="edgeStyle=orthogonalEdgeStyle;rounded=0;orthogonalLoop=1;jettySize=auto;html=1;entryX=0;entryY=0.5;entryDx=0;entryDy=0;elbow=vertical;" edge="1" parent="77e6c97f196da883-1" source="yeu5ydfBFWtMkk7DWW7v-38" target="yeu5ydfBFWtMkk7DWW7v-40">
          <mxGeometry relative="1" as="geometry" />
        </mxCell>
        <mxCell id="yeu5ydfBFWtMkk7DWW7v-46" style="edgeStyle=orthogonalEdgeStyle;rounded=0;orthogonalLoop=1;jettySize=auto;html=1;entryX=1;entryY=0;entryDx=0;entryDy=0;elbow=vertical;" edge="1" parent="77e6c97f196da883-1" source="yeu5ydfBFWtMkk7DWW7v-40" target="yeu5ydfBFWtMkk7DWW7v-32">
          <mxGeometry relative="1" as="geometry">
            <Array as="points">
              <mxPoint x="720" y="640" />
              <mxPoint x="90" y="640" />
            </Array>
          </mxGeometry>
        </mxCell>
        <mxCell id="yeu5ydfBFWtMkk7DWW7v-47" style="edgeStyle=orthogonalEdgeStyle;rounded=0;orthogonalLoop=1;jettySize=auto;html=1;entryX=1;entryY=0;entryDx=0;entryDy=0;elbow=vertical;" edge="1" parent="77e6c97f196da883-1" source="yeu5ydfBFWtMkk7DWW7v-29" target="yeu5ydfBFWtMkk7DWW7v-22">
          <mxGeometry relative="1" as="geometry">
            <Array as="points">
              <mxPoint x="560" y="520" />
              <mxPoint x="90" y="520" />
            </Array>
          </mxGeometry>
        </mxCell>
      </root>
    </mxGraphModel>
  </diagram>
</mxfile>
